# xmcd
#
# Track frame offsets:
#	150
#	10054
#	24793
#	37935
#	47657
#	54339
#	64953
#	74788
#	84302
#	92944
#	107357
#	114280
#	124581
#	133944
#	144869
#	156877
#	164829
#	176587
#	189265
#	196599
#	207113
#	213897
#
# Disc length: 3006 seconds
#
# Revision: 0
# Processed by: cddbd v1.5.2PL0 Copyright (c) Steve Scherf et al.
# Submitted via: EasyCDDAExtractor 8.2.3.1
#
DISCID=230bbc16
DTITLE=Old Fashioned Revival Hour Quartet - Silver Collection Volume 4
DYEAR=2007
DGENRE=Gospel
TTITLE0=Jesus Is Mine
TTITLE1=I'd Rather Have Jesus
TTITLE2=My Anchor Holds
TTITLE3=Medley: I've A Longing In My Heart/Spirit Of The Living God
TTITLE4=My Savior's Love
TTITLE5=It Is Well With My Soul
TTITLE6=The Lily Of The Valley
TTITLE7=Jesus Is Always There
TTITLE8=The Fight Is On
TTITLE9=Lead Me Gently Home, Father
TTITLE10=Ten Thousand Times Ten Thousand
TTITLE11=Life Is Like A Mountain Railroad
TTITLE12=Living Where The Healing Waters Flow
TTITLE13=He Died Of A Broken Heart
TTITLE14=Tis Burning In My Soul
TTITLE15=My Lord And I
TTITLE16=Stand Up. Stand Up For Jesus
TTITLE17=Ivory Palaces
TTITLE18=Sail On
TTITLE19=Nothing Between
TTITLE20=Shall We Gather At The River
TTITLE21=Sweet Peace, The Gift Of God's Love
EXTD=
EXTT0=
EXTT1=
EXTT2=
EXTT3=
EXTT4=
EXTT5=
EXTT6=
EXTT7=
EXTT8=
EXTT9=
EXTT10=
EXTT11=
EXTT12=
EXTT13=
EXTT14=
EXTT15=
EXTT16=
EXTT17=
EXTT18=
EXTT19=
EXTT20=
EXTT21=
PLAYORDER=
